<?xml version="1.0" encoding="UTF-8"?>
<svg id="Layer_2" data-name="Layer 2" xmlns="http://www.w3.org/2000/svg" xmlns:xlink="http://www.w3.org/1999/xlink" viewBox="0 0 327.45 69.13">
  <defs>
    <style>
      .cls-1 {
        fill: url(#linear-gradient);
      }

      .cls-2 {
        fill: #29576a;
      }
    </style>
    <linearGradient id="linear-gradient" x1="190.48" y1="61.34" x2="320.96" y2="61.34" gradientUnits="userSpaceOnUse">
      <stop offset=".02" stop-color="#4b8fb8"/>
      <stop offset=".27" stop-color="#71aec1"/>
      <stop offset=".6" stop-color="#9cd1cc"/>
      <stop offset=".85" stop-color="#b7e7d3"/>
      <stop offset="1" stop-color="#c1f0d6"/>
    </linearGradient>
  </defs>
  <g id="Layer_1-2" data-name="Layer 1">
    <g>
      <g>
        <path class="cls-2" d="m15.68,7.23c.61-2.16.88-4.52-2.16-4.52h-3.17c-.34,0-.4-.34-.34-.68l.34-1.28c.13-.47.27-.54.95-.54s12.7-.2,14.12-.2c6.41,0,10.13.47,13.37,3.17,2.97,2.5,4.05,4.59,4.05,9.19,0,6.82-5.81,14.32-19.45,14.32-2.97,0-5.81-.47-6.82-.81l-3.31,12.36c-.67,2.57-.54,4.93,2.16,4.93h2.57c.47,0,.61.27.54.67l-.2,1.28c-.07.4-.2.54-.81.54-.81,0-3.58-.2-8.98-.2-4.59,0-7.03.2-7.97.2-.4,0-.61-.2-.54-.68l.14-1.15c.07-.41.27-.67.74-.67h1.42c3.65,0,4.59-2.5,5.34-5.41L15.68,7.23Zm1.35,16.21c1.08.74,2.97,1.08,5.74,1.08,10.13,0,14.12-7.03,14.12-12.7,0-8.04-6.89-9.66-11.48-9.66-.74,0-2.16,0-2.64.13l-5.74,21.14Z"/>
        <path class="cls-2" d="m65.53,17.36c.27,0,.34.34.2.61-1.28,2.77-4.73,12.09-5.06,13.17-.41,1.15-3.24,9.52-3.24,10.13s.34.81.74.81c.81,0,4.25-3.51,4.73-4.12.2-.2.4-.34.54-.14l.61.67c.2.2.27.34.13.54-.74,1.35-6.62,7.09-10.47,7.09-.81,0-1.42-.27-1.42-1.15,0-1.01.67-3.11,3.24-10.27l-.34-.13c-2.84,4.32-9.66,11.55-14.46,11.55-1.55,0-3.65-1.28-3.65-4.32,0-9.86,11.08-24.45,19.32-24.45,2.84,0,4.12,1.22,4.8,2.3l1.28-1.82c.2-.27.4-.47.67-.47h2.37Zm-8.51,11.75c.95-1.96,1.62-3.65,1.62-5.61,0-1.82-.67-3.99-3.17-3.99-6.21,0-13.44,14.25-13.44,20.67,0,1.55.68,2.37,1.82,2.37,3.38,0,11.96-10.94,13.17-13.44Z"/>
        <path class="cls-2" d="m76.27,21.68h-4.73c-.4,0-.54-.13-.4-.54l.54-1.49c.14-.34.34-.47.74-.47h4.86l3.51-7.83c.34-.68.54-.81,1.08-1.02.74-.2,2.5-.88,3.04-1.15.4-.2.74-.41,1.01-.41.41,0,.54.41.07,1.35l-4.46,9.05h6.89c.34,0,.47.2.27.74l-.61,1.42c-.07.2-.34.34-.61.34h-6.89l-6.55,15.2c-.81,1.89-1.55,3.58-1.55,4.32s.27,1.15.88,1.15c1.96,0,6.35-3.85,6.76-4.32.2-.27.4-.2.61,0l.74.81c.2.2.2.34.07.61-.88,1.08-7.16,6.69-12.36,6.69-1.69,0-2.16-.67-2.16-1.62,0-1.01.34-2.16.74-3.17l8.51-19.66Z"/>
        <path class="cls-2" d="m89.1,44.45c0-1.55,1.15-4.66,3.99-12.23l1.96-5.27c.67-1.82,1.22-3.17,1.22-3.99,0-.61-.41-.88-.95-.88-1.15,0-4.32,3.65-5.41,4.73-.27.27-.54.27-.74.07l-.54-.61c-.27-.2-.4-.34-.2-.61.27-.4,7.16-8.51,11.48-8.31.81,0,1.62.54,1.62,1.69,0,1.22-1.08,4.26-2.3,7.5l-3.92,10.27c-.95,2.5-1.22,3.99-1.22,4.46,0,.61.2,1.02.74,1.15,1.42-.27,5.06-4.12,5.41-4.73.13-.2.4-.2.74.13l.54.47c.27.34.34.47.13.81-.4.54-5.81,7.03-11.42,7.03-.67-.07-1.15-.61-1.15-1.69Zm8.51-39.38c0-1.82,1.42-3.38,3.51-3.38,2.37,0,3.58,1.69,3.58,3.24,0,1.01-.81,3.38-3.58,3.38-2.97,0-3.51-2.5-3.51-3.24Z"/>
        <path class="cls-2" d="m105.04,39.51c0-5.68,3.71-12.77,8.65-17.63,2.16-2.16,5.81-4.53,9.05-4.53,2.63,0,3.85,1.96,3.85,3.58,0,3.31-2.5,6.82-6.28,8.78-3.65,1.82-7.3,2.57-9.8,2.77-.34.81-.88,3.04-.88,6.21s2.23,4.26,3.51,4.26c3.31,0,6.28-2.5,7.7-4.8.13-.2.34-.34.61-.07l.74.61c.34.2.34.4.07.61-1.69,2.37-5.74,6.82-10.94,6.82-4.39,0-6.28-2.16-6.28-6.62Zm6.01-8.98c2.37.2,11.21-2.64,11.21-7.63,0-1.35-.67-2.57-2.16-2.57-4.32,0-8.51,7.77-9.05,10.2Z"/>
        <path class="cls-2" d="m129.15,45.46c-.74,0-.88-.13-.74-.61l4.8-12.49c1.62-4.19,3.51-9.05,3.51-10.2,0-.68-.27-1.15-1.01-1.15-1.28,0-4.53,3.24-5.67,4.52-.2.2-.41.2-.68-.07l-.61-.61c-.27-.27-.34-.4-.13-.67,1.01-1.22,6.01-6.82,10.87-6.82,1.55,0,2.16,1.15,2.16,2.03,0,2.09-2.9,8.51-3.44,10.06l.27.14c2.03-3.24,9.39-12.23,15.4-12.23,2.02,0,3.38,1.01,3.38,2.77,0,2.97-1.55,6.48-3.78,11.96-1.82,4.46-3.45,8.24-3.45,9.32,0,.4.27.88.81.88,1.01,0,3.99-2.5,4.86-3.44.27-.2.54-.14.74.13l.47.54c.27.27.34.4.07.74-.81,1.08-6.28,5.88-10.81,5.88-.88,0-1.62-.34-1.62-1.35,0-1.28,2.43-6.62,4.52-12.43.95-2.64,3.38-8.24,3.38-9.73,0-.95-.47-1.55-1.69-1.55-2.64,0-9.32,6.21-12.29,11.01-1.22,1.96-2.3,3.71-4.05,8.44l-1.69,4.53c-.13.27-.27.4-.95.4h-2.63Z"/>
        <path class="cls-2" d="m170.08,21.68h-4.73c-.4,0-.54-.13-.4-.54l.54-1.49c.14-.34.34-.47.74-.47h4.86l3.51-7.83c.34-.68.54-.81,1.08-1.02.74-.2,2.5-.88,3.04-1.15.4-.2.74-.41,1.01-.41.41,0,.54.41.07,1.35l-4.46,9.05h6.89c.34,0,.47.2.27.74l-.61,1.42c-.07.2-.34.34-.61.34h-6.89l-6.55,15.2c-.81,1.89-1.55,3.58-1.55,4.32s.27,1.15.88,1.15c1.96,0,6.35-3.85,6.76-4.32.2-.27.4-.2.61,0l.74.81c.2.2.2.34.07.61-.88,1.08-7.16,6.69-12.36,6.69-1.69,0-2.16-.67-2.16-1.62,0-1.01.34-2.16.74-3.17l8.51-19.66Z"/>
        <path class="cls-2" d="m209.32,6.48c.67-2.09.47-3.99-3.92-3.99h-2.57c-.4,0-.67-.27-.54-.81l.27-1.01c.14-.47.2-.67.74-.67.88,0,3.58.2,11.62.2,1.01,0,1.08,1.02,1.42,1.76l14.52,32.42c.54,1.15.74,1.15,1.69-1.55l8.85-26.41c.88-2.57,0-3.92-2.16-3.92h-2.37c-.61,0-.81-.2-.74-.74l.2-1.21c.07-.34.2-.54.68-.54.81,0,2.9.2,7.7.2,3.51,0,4.86-.2,5.81-.2.54,0,.74.34.61.88l-.2,1.08c-.07.47-.2.54-.61.54h-1.69c-1.69,0-2.57.47-3.71,3.71l-13.1,37.49c-.74,2.23-1.96,2.16-2.77.41l-16.08-35.87c-.4-.88-.95-.88-1.22.07l-8.65,28.57c-1.22,4.05-.74,6.28,2.3,6.28h2.64c.47,0,.67.27.61.67l-.2,1.28c-.13.4-.2.54-.81.54-.68,0-3.58-.2-8.51-.2-4.66,0-6.89.2-7.57.2-.4,0-.61-.27-.54-.74l.2-1.22c.07-.34.2-.54.61-.54h1.82c3.31,0,4.73-1.89,6.35-6.96l9.32-29.72Z"/>
        <path class="cls-2" d="m243.9,37.42c0-8.51,6.42-20.06,15.4-20.06,4.53,0,7.23,3.31,7.23,7.9,0,7.43-5.88,20.87-15.67,20.87-3.71,0-6.96-3.58-6.96-8.71Zm19.93-13.17c.07-2.09-1.15-3.78-3.38-3.78-2.84,0-6.42,2.57-9.8,8.04-2.3,3.65-3.92,7.77-3.92,10.94,0,2.16,1.48,3.44,3.11,3.44,7.02,0,13.98-14.18,13.98-18.64Z"/>
        <path class="cls-2" d="m277.94,21.68h-4.73c-.4,0-.54-.13-.4-.54l.54-1.49c.14-.34.34-.47.74-.47h4.86l3.51-7.83c.34-.68.54-.81,1.08-1.02.74-.2,2.5-.88,3.04-1.15.4-.2.74-.41,1.01-.41.41,0,.54.41.07,1.35l-4.46,9.05h6.89c.34,0,.47.2.27.74l-.61,1.42c-.07.2-.34.34-.61.34h-6.89l-6.55,15.2c-.81,1.89-1.55,3.58-1.55,4.32s.27,1.15.88,1.15c1.96,0,6.35-3.85,6.76-4.32.2-.27.4-.2.61,0l.74.81c.2.2.2.34.07.61-.88,1.08-7.16,6.69-12.36,6.69-1.69,0-2.16-.67-2.16-1.62,0-1.01.34-2.16.74-3.17l8.51-19.66Z"/>
        <path class="cls-2" d="m287.67,39.51c0-5.68,3.71-12.77,8.65-17.63,2.16-2.16,5.81-4.53,9.05-4.53,2.63,0,3.85,1.96,3.85,3.58,0,3.31-2.5,6.82-6.28,8.78-3.65,1.82-7.3,2.57-9.8,2.77-.34.81-.88,3.04-.88,6.21s2.23,4.26,3.51,4.26c3.31,0,6.28-2.5,7.7-4.8.13-.2.34-.34.61-.07l.74.61c.34.2.34.4.07.61-1.69,2.37-5.74,6.82-10.94,6.82-4.39,0-6.28-2.16-6.28-6.62Zm6.01-8.98c2.37.2,11.21-2.64,11.21-7.63,0-1.35-.67-2.57-2.16-2.57-4.32,0-8.51,7.77-9.05,10.2Z"/>
        <path class="cls-2" d="m307.73,42.35c0-.95.88-2.23,2.3-2.23s2.37,1.01,2.77,2.16c.4,1.15.74,1.89,2.43,1.89,1.96,0,3.78-1.76,3.78-4.12,0-2.91-2.02-5.68-2.9-7.84-.47-1.15-2.03-3.51-1.96-6.62,0-3.92,3.71-8.24,8.51-8.24,2.03,0,4.79.81,4.79,3.44,0,1.22-1.08,2.16-2.09,2.16-.81,0-1.82-.47-2.3-1.62-.34-.81-.4-1.89-1.75-1.89s-3.31,1.82-3.31,4.26,2.02,5.34,2.43,6.28c.4.81,2.57,4.12,2.57,7.7,0,5.27-4.26,8.44-8.92,8.44-3.92,0-6.35-1.55-6.35-3.78Z"/>
      </g>
      <path class="cls-1" d="m191.16,69.04c16.27-4.73,32.95-8.05,49.8-9.9,16.86-1.85,33.88-2.29,50.81-1.29,9.57.56,19.12,1.59,28.59,3.09,1.01.16,2.02-.26,2.32-1.32.26-.9-.31-2.16-1.32-2.32-17.07-2.7-34.35-3.96-51.63-3.72s-34.36,1.95-51.26,5.09c-9.54,1.77-19,4.02-28.32,6.73-2.33.68-1.34,4.32,1,3.64h0Z"/>
    </g>
  </g>
</svg>